<?xml version="1.0"?>
<svg xmlns="http://www.w3.org/2000/svg" xmlns:xlink="http://www.w3.org/1999/xlink" xmlns:svgjs="http://svgjs.com/svgjs" version="1.1" width="512" height="512" x="0" y="0" viewBox="0 0 64 64" style="enable-background:new 0 0 512 512" xml:space="preserve" class=""><g transform="matrix(0.8600000000000001,0,0,0.8599999999999999,4.48006961107253,4.47992977142334)"><path xmlns="http://www.w3.org/2000/svg" d="m62.933 46.933h-61.866c-.589 0-1.067-.478-1.067-1.066v-27.734c0-.589.478-1.067 1.067-1.067h61.867c.589 0 1.067.478 1.067 1.067v27.733c-.001.589-.479 1.067-1.068 1.067zm-60.8-2.133h59.733v-25.6h-59.733z" fill="#e5e5e5" data-original="#000000" style="" class=""/><path xmlns="http://www.w3.org/2000/svg" d="m18.133 37.333h-8.533c-.589 0-1.067-.478-1.067-1.067v-8.533c0-.589.478-1.067 1.067-1.067h8.533c.589 0 1.067.478 1.067 1.067v8.533c0 .589-.478 1.067-1.067 1.067zm-7.466-2.133h6.4v-6.4h-6.4z" fill="#e5e5e5" data-original="#000000" style="" class=""/><path xmlns="http://www.w3.org/2000/svg" d="m62.933 33.067h-44.8c-.589 0-1.067-.478-1.067-1.067s.478-1.067 1.067-1.067h44.8c.589 0 1.067.478 1.067 1.067s-.478 1.067-1.067 1.067z" fill="#e5e5e5" data-original="#000000" style="" class=""/></g></svg>
