<?xml version="1.0"?>
<svg xmlns="http://www.w3.org/2000/svg" xmlns:xlink="http://www.w3.org/1999/xlink" xmlns:svgjs="http://svgjs.com/svgjs" version="1.1" width="512" height="512" x="0" y="0" viewBox="0 0 64 64" style="enable-background:new 0 0 512 512" xml:space="preserve" class=""><g transform="matrix(0.8599999999999999,0,0,0.8599999999999999,4.479999732971194,4.479999732971194)"><path xmlns="http://www.w3.org/2000/svg" d="m62.933 46.933h-48c-8.234 0-14.933-6.698-14.933-14.933s6.699-14.933 14.933-14.933h48c.589 0 1.067.478 1.067 1.067v27.733c0 .588-.478 1.066-1.067 1.066zm-48-27.733c-7.058 0-12.8 5.742-12.8 12.8s5.742 12.8 12.8 12.8h46.933v-25.6z" fill="#e5e5e5" data-original="#000000" style="" class=""/><path xmlns="http://www.w3.org/2000/svg" d="m18.133 37.333h-8.533c-.589 0-1.067-.478-1.067-1.067v-8.533c0-.589.478-1.067 1.067-1.067h8.533c.589 0 1.067.478 1.067 1.067v8.533c0 .589-.478 1.067-1.067 1.067zm-7.466-2.133h6.4v-6.4h-6.4z" fill="#e5e5e5" data-original="#000000" style="" class=""/><path xmlns="http://www.w3.org/2000/svg" d="m62.933 33.067h-44.8c-.589 0-1.067-.478-1.067-1.067s.478-1.067 1.067-1.067h44.8c.589 0 1.067.478 1.067 1.067s-.478 1.067-1.067 1.067z" fill="#e5e5e5" data-original="#000000" style="" class=""/></g></svg>
