<?xml version="1.0"?>
<svg xmlns="http://www.w3.org/2000/svg" xmlns:xlink="http://www.w3.org/1999/xlink" xmlns:svgjs="http://svgjs.com/svgjs" version="1.1" width="512" height="512" x="0" y="0" viewBox="0 0 512 512" style="enable-background:new 0 0 512 512" xml:space="preserve" class=""><g transform="matrix(0.92,0,0,0.92,20.48,107.8)"><path xmlns="http://www.w3.org/2000/svg" d="m0 288h512v32h-512zm0 0" fill="#e5e5e5" data-original="#62808c" style="" class=""/><path xmlns="http://www.w3.org/2000/svg" d="m512 224h-240v-32h240zm-272 0h-240v-32h240zm0 0" fill="#e5e5e5" data-original="#77959e" style="" class=""/><path xmlns="http://www.w3.org/2000/svg" d="m512 128h-128v-32h128zm-176 0h-144v-32h144zm-192 0h-144v-32h144zm0 0" fill="#e5e5e5" data-original="#bfc9d1" style="" class=""/><path xmlns="http://www.w3.org/2000/svg" d="m512 32h-32v-32h32zm-80 0h-32v-32h32zm-80 0h-32v-32h32zm-80 0h-32v-32h32zm-80 0h-32v-32h32zm-80 0h-32v-32h32zm-80 0h-32v-32h32zm0 0" fill="#e5e5e5" data-original="#d7dee2" style="" class=""/></g></svg>
