<?xml version="1.0"?>
<svg xmlns="http://www.w3.org/2000/svg" xmlns:xlink="http://www.w3.org/1999/xlink" xmlns:svgjs="http://svgjs.com/svgjs" version="1.1" width="512" height="512" x="0" y="0" viewBox="0 0 533.876 533.876" style="enable-background:new 0 0 512 512" xml:space="preserve" class=""><g transform="matrix(0.8599999999999999,0,0,0.8599999999999999,37.371316223144504,37.371316223144504)"><g xmlns="http://www.w3.org/2000/svg"><path d="m408.749 533.876h-283.622c-68.995 0-125.127-56.132-125.127-125.127v-283.622c0-68.995 56.132-125.127 125.127-125.127h283.622c68.995 0 125.127 56.132 125.127 125.127v283.622c0 68.995-56.132 125.127-125.127 125.127zm-283.622-492.167c-45.997 0-83.418 37.421-83.418 83.418v283.622c0 45.997 37.421 83.418 83.418 83.418h283.622c45.997 0 83.418-37.421 83.418-83.418v-283.622c0-45.997-37.421-83.418-83.418-83.418zm-5.064 400.555 321.16-321.16c8.144-8.145 8.144-21.349 0-29.492-8.145-8.145-21.35-8.145-29.493 0l-321.16 321.16c-8.144 8.145-8.144 21.349 0 29.492 4.072 4.072 9.41 6.108 14.746 6.108s10.674-2.036 14.747-6.108z" fill="#e5e5e5" data-original="#000000" style="" class=""/></g></g></svg>
