<?xml version="1.0"?>
<svg xmlns="http://www.w3.org/2000/svg" xmlns:xlink="http://www.w3.org/1999/xlink" xmlns:svgjs="http://svgjs.com/svgjs" version="1.1" width="512" height="512" x="0" y="0" viewBox="0 0 512 512" style="enable-background:new 0 0 512 512" xml:space="preserve" class=""><g transform="matrix(0.7999999999999999,0,0,0.8,51.20000000000002,51.19999999999999)"><g xmlns="http://www.w3.org/2000/svg"><path d="m497 40h-482c-8.284 0-15 6.716-15 15v60c0 8.284 6.716 15 15 15h482c8.284 0 15-6.716 15-15v-60c0-8.284-6.716-15-15-15zm-15 60h-452v-30h452z" fill="#e5e5e5" data-original="#000000" style="" class=""/><path d="m497 166h-482c-8.284 0-15 6.716-15 15v90c0 8.284 6.716 15 15 15h482c8.284 0 15-6.716 15-15v-90c0-8.284-6.716-15-15-15zm-15 90h-452v-60h452z" fill="#e5e5e5" data-original="#000000" style="" class=""/><path d="m497 322h-482c-8.284 0-15 6.716-15 15v120c0 8.284 6.716 15 15 15h482c8.284 0 15-6.716 15-15v-120c0-8.284-6.716-15-15-15zm-15 120h-452v-90h452z" fill="#e5e5e5" data-original="#000000" style="" class=""/></g></g></svg>
