<?xml version="1.0"?>
<svg xmlns="http://www.w3.org/2000/svg" xmlns:xlink="http://www.w3.org/1999/xlink" xmlns:svgjs="http://svgjs.com/svgjs" version="1.1" width="512" height="512" x="0" y="0" viewBox="0 0 512 512.001" style="enable-background:new 0 0 512 512" xml:space="preserve" class=""><g transform="matrix(0.82,0,0,0.8200000000000002,46.07999914169318,46.080087933540284)"><path xmlns="http://www.w3.org/2000/svg" d="m512 281.25c0-5.105469-2.59375-9.859375-6.886719-12.617188l-66.957031-43.042968 66.957031-43.042969c4.292969-2.761719 6.886719-7.515625 6.886719-12.617187 0-5.105469-2.59375-9.859376-6.886719-12.617188l-241-154.929688c-4.941406-3.175781-11.28125-3.175781-16.226562 0l-241 154.929688c-4.292969 2.757812-6.886719 7.511719-6.886719 12.617188 0 5.101562 2.59375 9.855468 6.890625 12.617187l66.800781 42.941406-66.828125 43.160157c-4.28125 2.765624-6.86718725 7.515624-6.863281 12.617187.00390625 5.097656 2.601562 9.84375 6.890625 12.601563l241 154.925781c2.46875 1.589843 5.289063 2.382812 8.109375 2.382812s5.640625-.792969 8.113281-2.382812l39.203125-25.203125c7.976563 50.042968 51.433594 88.410156 103.683594 88.410156 57.898438 0 105-47.101562 105-105 0-36.425781-18.648438-68.574219-46.898438-87.414062l40.011719-25.71875c4.292969-2.761719 6.886719-7.515626 6.886719-12.617188zm-256-248.417969 213.261719 137.097657-213.261719 137.097656-213.261719-137.097656zm226 374.167969c0 41.355469-33.644531 75-75 75s-75-33.644531-75-75 33.644531-75 75-75 75 33.644531 75 75zm-49.789062-101.933594c-8.082032-1.996094-16.523438-3.066406-25.210938-3.066406-51.277344 0-94.078125 36.949219-103.199219 85.617188l-47.800781 30.726562-213.304688-137.125 58.707032-37.914062 146.488281 94.171874c2.46875 1.585938 5.289063 2.382813 8.109375 2.382813s5.640625-.796875 8.113281-2.382813l146.304688-94.054687 58.84375 37.824219zm0 0" fill="#e5e5e5" data-original="#000000" style="" class=""/><path xmlns="http://www.w3.org/2000/svg" d="m437 392h-15v-15c0-8.28125-6.714844-15-15-15s-15 6.71875-15 15v15h-15c-8.285156 0-15 6.71875-15 15 0 8.285156 6.714844 15 15 15h15v15c0 8.285156 6.714844 15 15 15s15-6.714844 15-15v-15h15c8.285156 0 15-6.714844 15-15 0-8.28125-6.714844-15-15-15zm0 0" fill="#e5e5e5" data-original="#000000" style="" class=""/></g></svg>
