<?xml version="1.0"?>
<svg width="512" height="512" xmlns="http://www.w3.org/2000/svg" xmlns:svg="http://www.w3.org/2000/svg" xmlns:se="http://svg-edit.googlecode.com" version="1.1">
  <g id="svg_3" transform="matrix(0.7 0 0 0.7 76.8 76.8)">
    <path d="m197,240c8.284,0 15,-6.716 15,-15l0,-30c0,-8.284 -6.716,-15 -15,-15s-15,6.716 -15,15l0,30c0,8.284 6.716,15 15,15zm0,-90c8.284,0 15,-6.716 15,-15l0,-30c0,-8.284 -6.716,-15 -15,-15s-15,6.716 -15,15l0,30c0,8.284 6.716,15 15,15zm210,150l-30,0c-8.284,0 -15,6.716 -15,15s6.716,15 15,15l30,0c8.284,0 15,-6.716 15,-15s-6.716,-15 -15,-15zm-210,-300l-182,0c-8.284,0 -15,6.716 -15,15l0,482c0,8.284 6.716,15 15,15l482,0c8.284,0 15,-6.716 15,-15l0,-182c0,-174.091 -140.885,-315 -315,-315zm285,482l-452,0l0,-452l152,0l0,15c0,8.284 6.716,15 15,15s15,-6.716 15,-15l0,-14.606c145.236,7.568 262.038,124.37 269.606,269.606l-14.606,0c-8.284,0 -15,6.716 -15,15s6.716,15 15,15l15,0l0,152zm-165,-182l-30,0c-8.284,0 -15,6.716 -15,15s6.716,15 15,15l30,0c8.284,0 15,-6.716 15,-15s-6.716,-15 -15,-15zm-120,-30c-24.813,0 -45,20.187 -45,45s20.187,45 45,45s45,-20.187 45,-45s-20.187,-45 -45,-45zm0,60c-8.271,0 -15,-6.729 -15,-15s6.729,-15 15,-15s15,6.729 15,15s-6.729,15 -15,15z" data-original="url(#SVGID_1_)" fill="#ffffff" stroke="#ffffff" stroke-linecap="round" stroke-width="7"/>
  </g>
</svg>