<?xml version="1.0" encoding="UTF-8" standalone="no"?>
<svg
   version="1.1"
   width="512"
   height="512"
   x="0"
   y="0"
   viewBox="0 0 512 512"
   style="enable-background:new 0 0 512 512"
   xml:space="preserve"
   id="svg6"
   inkscape:version="1.1 (c68e22c387, 2021-05-23)"
   xmlns:inkscape="http://www.inkscape.org/namespaces/inkscape"
   xmlns:sodipodi="http://sodipodi.sourceforge.net/DTD/sodipodi-0.dtd"
   xmlns="http://www.w3.org/2000/svg"
   xmlns:svg="http://www.w3.org/2000/svg"><defs
   id="defs10" /><sodipodi:namedview
   id="namedview8"
   pagecolor="#ffffff"
   bordercolor="#666666"
   borderopacity="1.0"
   inkscape:pageshadow="2"
   inkscape:pageopacity="0.0"
   inkscape:pagecheckerboard="0"
   showgrid="false"
   inkscape:zoom="1.5859375"
   inkscape:cx="256"
   inkscape:cy="256.31527"
   inkscape:window-width="1920"
   inkscape:window-height="1001"
   inkscape:window-x="-9"
   inkscape:window-y="-9"
   inkscape:window-maximized="1"
   inkscape:current-layer="svg6" /> <g
   transform="matrix(0.86,0,0,0.86,35.840001,35.84)"
   id="g4"
   style="fill:#ffffff"> <path
   d="m 491.54,352.312 c 11.024,0 19.961,-8.937 19.961,-19.961 V 202.604 c 0,-44.026 -35.818,-79.844 -79.844,-79.844 H 389.739 V 79.844 C 389.739,35.818 353.921,0 309.895,0 H 80.343 C 36.317,0 0.499,35.818 0.499,79.844 v 229.552 c 0,44.026 35.818,79.844 79.844,79.844 h 41.918 v 42.916 c 0,44.026 35.818,79.844 79.844,79.844 h 229.552 c 44.026,0 79.844,-35.818 79.844,-79.844 0,-11.024 -8.937,-19.961 -19.961,-19.961 -11.024,0 -19.961,8.937 -19.961,19.961 0,22.013 -17.909,39.922 -39.922,39.922 H 202.105 c -22.013,0 -39.922,-17.909 -39.922,-39.922 V 202.604 c 0,-22.013 17.909,-39.922 39.922,-39.922 h 229.552 c 22.013,0 39.922,17.909 39.922,39.922 v 129.747 c 0,11.024 8.937,19.961 19.961,19.961 z M 40.421,79.844 c 0,-22.013 17.909,-39.922 39.922,-39.922 h 28.358 l -68.28,68.273 V 79.844 Z m 81.84,269.474 H 83.482 l 38.779,-38.779 z m 0,-146.714 v 51.474 L 46.228,330.112 C 42.544,324.069 40.42,316.976 40.42,309.395 v -31.354 l 82.117,-82.118 c -0.182,2.204 -0.276,4.432 -0.276,6.681 z m -81.84,18.979 V 164.651 L 165.02,40.065 c 0.047,-0.047 0.094,-0.095 0.141,-0.143 h 56.921 z M 253.587,122.76 h -51.481 c -2.25,0 -4.477,0.094 -6.68,0.276 l 78.182,-78.182 c 1.49,-1.49 2.695,-3.157 3.615,-4.932 h 32.672 c 7.58,0 14.673,2.124 20.717,5.808 l -76.749,76.749 c -0.094,0.093 -0.185,0.187 -0.276,0.281 z m 96.23,0 H 310.04 l 39.777,-39.777 z"
   fill="#b093ab"
   data-original="#000000"
   class=""
   id="path2"
   style="fill:#ffffff" /></g></svg>
