<?xml version="1.0" encoding="UTF-8" standalone="no"?>
<svg
   version="1.1"
   width="512"
   height="512"
   x="0"
   y="0"
   viewBox="0 0 512 512"
   style="enable-background:new 0 0 512 512"
   xml:space="preserve"
   id="svg6"
   inkscape:version="1.1 (c68e22c387, 2021-05-23)"
   xmlns:inkscape="http://www.inkscape.org/namespaces/inkscape"
   xmlns:sodipodi="http://sodipodi.sourceforge.net/DTD/sodipodi-0.dtd"
   xmlns="http://www.w3.org/2000/svg"
   xmlns:svg="http://www.w3.org/2000/svg"><defs
   id="defs10" /><sodipodi:namedview
   id="namedview8"
   pagecolor="#ffffff"
   bordercolor="#666666"
   borderopacity="1.0"
   inkscape:pageshadow="2"
   inkscape:pageopacity="0.0"
   inkscape:pagecheckerboard="0"
   showgrid="false"
   inkscape:zoom="1.5859375"
   inkscape:cx="256"
   inkscape:cy="256.31527"
   inkscape:window-width="1920"
   inkscape:window-height="1001"
   inkscape:window-x="-9"
   inkscape:window-y="-9"
   inkscape:window-maximized="1"
   inkscape:current-layer="svg6" /> <g
   transform="matrix(0.86,0,0,0.86,35.84,35.84)"
   id="g4"
   style="fill:#ffffff"> <path
   d="M 502.667,258.921 C 508.275,255.378 512,249.124 512,242 v -40 c 0,-44.112 -35.888,-80 -80,-80 H 390 V 80 C 390,35.888 354.112,0 310,0 H 80 C 35.888,0 0,35.888 0,80 v 230 c 0,44.112 35.888,80 80,80 h 42 v 42 c 0,44.112 35.888,80 80,80 h 230 c 44.112,0 80,-35.888 80,-80 v -76 c 0,-11.046 -8.954,-20 -20,-20 -5.64,0 -10.735,2.335 -14.371,6.091 -1.23,0.778 -2.393,1.702 -3.466,2.774 L 347.158,471.857 c -0.047,0.047 -0.094,0.095 -0.141,0.143 H 289.984 L 500.492,261.492 c 0.809,-0.809 1.533,-1.669 2.175,-2.571 z M 472,403.594 V 432 c 0,22.056 -17.944,40 -40,40 h -28.413 z m -233.642,63.464 c -1.493,1.493 -2.7,3.163 -3.622,4.942 H 202 c -7.595,0 -14.702,-2.128 -20.757,-5.818 L 257.424,390 H 310 c 1.886,0 3.757,-0.066 5.611,-0.195 z M 162,428.856 V 390 h 38.856 z M 350,310 c 0,22.056 -17.944,40 -40,40 H 80 C 57.944,350 40,332.056 40,310 V 80 C 40,57.944 57.944,40 80,40 h 230 c 22.056,0 40,17.944 40,40 z m 40,-148 h 38.856 L 390,200.856 Z m 82,71.416 -82.195,82.195 C 389.934,313.757 390,311.886 390,310 v -52.576 l 76.182,-76.182 C 469.872,187.298 472,194.405 472,202 Z"
   fill="#b093ab"
   data-original="#000000"
   id="path2"
   style="fill:#ffffff" /></g></svg>
