<?xml version="1.0"?>
<svg xmlns="http://www.w3.org/2000/svg" xmlns:xlink="http://www.w3.org/1999/xlink" xmlns:svgjs="http://svgjs.com/svgjs" version="1.1" width="512" height="512" x="0" y="0" viewBox="0 0 512 512" style="enable-background:new 0 0 512 512" xml:space="preserve" class=""><g transform="matrix(0.7499999999999999,0,0,0.75,64.00012028217313,63.999874114990234)">
<g xmlns="http://www.w3.org/2000/svg">
	<path d="M495.304,425.738H255.417c-3.576-52.031-23.828-100.842-58.185-140.23L401.371,81.37c6.52-6.52,6.52-17.091,0-23.611    c-6.519-6.52-17.091-6.52-23.611,0L4.89,430.629c-3.282,3.282-4.984,7.702-4.886,12.172c0.018,0.813,0.095,1.627,0.233,2.436    c0.207,1.214,0.55,2.416,1.034,3.586c2.584,6.239,8.672,10.307,15.425,10.307h222.609h256c9.22,0,16.696-7.475,16.696-16.696    S504.525,425.738,495.304,425.738z M57.002,425.738l116.562-116.561c28.136,32.988,44.927,73.446,48.38,116.561H57.002z" fill="#ffffff" data-original="#000000" style="" class=""/>
</g></g></svg>
