<svg height="512pt" viewBox="0 -34 512 512" width="512pt" xmlns="http://www.w3.org/2000/svg"><path d="m297.300781 312.300781h-282.300781c-8.285156 0-15-6.714843-15-15v-282.300781c0-8.285156 6.714844-15 15-15h282.300781c8.285157 0 15 6.714844 15 15v282.300781c0 8.285157-6.714843 15-15 15zm0 0" fill="#ff8b6e"/><path d="m297.300781 0h-141.152343v312.300781h141.152343c8.285157 0 15-6.714843 15-15v-282.300781c0-8.285156-6.714843-15-15-15zm0 0" fill="#ff6e57"/><path d="m349.332031 391.640625c-89.695312 0-162.671875-72.972656-162.671875-162.667969 0-89.695312 72.976563-162.667968 162.671875-162.667968 89.695313 0 162.667969 72.972656 162.667969 162.667968 0 89.695313-72.972656 162.667969-162.667969 162.667969zm0 0" fill="#a3efff"/><path d="m512 228.972656c0-89.695312-72.972656-162.667968-162.667969-162.667968v325.335937c89.695313 0 162.667969-72.972656 162.667969-162.667969zm0 0" fill="#6ad9eb"/><path d="m349.332031 66.304688c-89.695312 0-162.671875 72.972656-162.671875 162.667968 0 89.695313 72.976563 162.667969 162.671875 162.667969 89.695313 0 162.667969-72.972656 162.667969-162.667969 0-89.695312-72.972656-162.667968-162.667969-162.667968zm-24.355469 293.089843c-11.246093-2.097656-22-5.617187-32.0625-10.363281l176.472657-176.476562c4.75 10.066406 8.269531 20.816406 10.363281 32.066406zm128.125-212.980469-186.328124 186.332032c-7.84375-6.253906-14.964844-13.375-21.214844-21.214844l186.332031-186.332031c7.839844 6.253906 14.960937 13.375 21.210937 21.214843zm-234.191406 106.914063 154.773438-154.777344c11.25 2.097657 22 5.617188 32.0625 10.363281l-176.472656 176.476563c-4.75-10.066406-8.265626-20.816406-10.363282-32.0625zm113.527344-155.953125-114.707031 114.703125c7.621093-59.671875 55.035156-107.085937 114.707031-114.703125zm33.785156 263.195312 114.707032-114.703124c-7.617188 59.671874-55.03125 107.085937-114.707032 114.703124zm0 0" fill="#28c1d1"/><path d="m349.332031 66.304688v56.601562l24.351563-24.351562c11.25 2.09375 22 5.613281 32.0625 10.359374l-56.417969 56.421876v42.425781l82.5625-82.5625c7.839844 6.253906 14.960937 13.375 21.210937 21.214843l-103.769531 103.773438v42.425781l120.054688-120.058593c4.75 10.066406 8.269531 20.816406 10.363281 32.066406l-130.421875 130.417968v56.605469c89.699219 0 162.671875-72.972656 162.671875-162.671875 0-89.695312-72.972656-162.667968-162.667969-162.667968zm16.890625 294.265624 114.707032-114.703124c-7.617188 59.671874-55.03125 107.085937-114.707032 114.703124zm0 0" fill="#00a2b2"/><path d="m374.183594 443.195312h-303.71875c-5.308594 0-10.222656-2.804687-12.917969-7.375-2.699219-4.570312-2.78125-10.226562-.21875-14.871093l151.859375-275.246094c2.640625-4.785156 7.671875-7.753906 13.136719-7.753906 5.460937 0 10.492187 2.96875 13.132812 7.753906l151.859375 275.246094c2.566406 4.644531 2.480469 10.300781-.214844 14.871093-2.699218 4.570313-7.613281 7.375-12.917968 7.375zm0 0" fill="#ffe645"/><path d="m374.183594 443.195312c5.304687 0 10.21875-2.804687 12.917968-7.375 2.695313-4.570312 2.777344-10.226562.214844-14.871093l-151.859375-275.246094c-2.640625-4.785156-7.671875-7.753906-13.132812-7.753906v305.246093zm0 0" fill="#ffcf2c"/></svg>