<?xml version="1.0" encoding="UTF-8" standalone="no"?>
<!-- Created with Inkscape (http://www.inkscape.org/) -->

<svg
   width="100"
   height="100"
   viewBox="0 0 26.458333 26.458333"
   version="1.1"
   id="svg827"
   inkscape:version="1.1 (c68e22c387, 2021-05-23)"
   sodipodi:docname="ладошка.svg"
   xmlns:inkscape="http://www.inkscape.org/namespaces/inkscape"
   xmlns:sodipodi="http://sodipodi.sourceforge.net/DTD/sodipodi-0.dtd"
   xmlns="http://www.w3.org/2000/svg"
   xmlns:svg="http://www.w3.org/2000/svg">
  <sodipodi:namedview
     id="namedview829"
     pagecolor="#ffffff"
     bordercolor="#666666"
     borderopacity="1.0"
     inkscape:pageshadow="2"
     inkscape:pageopacity="0.0"
     inkscape:pagecheckerboard="0"
     inkscape:document-units="mm"
     showgrid="false"
     width="100mm"
     units="px"
     inkscape:zoom="5.6568543"
     inkscape:cx="52.060737"
     inkscape:cy="52.41429"
     inkscape:window-width="1920"
     inkscape:window-height="1001"
     inkscape:window-x="-9"
     inkscape:window-y="-9"
     inkscape:window-maximized="1"
     inkscape:current-layer="layer1"
     height="100px" />
  <defs
     id="defs824" />
  <g
     inkscape:label="Слой 1"
     inkscape:groupmode="layer"
     id="layer1">
    <rect
       style="display:none;opacity:1;fill:#000000;fill-opacity:0.950413;stroke:none;stroke-width:1.05084;stroke-linecap:round;stroke-linejoin:round;stroke-miterlimit:4;stroke-dasharray:none;stroke-opacity:1;paint-order:fill markers stroke"
       id="rect3976"
       width="26.260611"
       height="26.185381"
       x="0.13193378"
       y="0.14685111" />
    <path
       style="fill:#ffffff;fill-opacity:1;stroke:#ffffff;stroke-width:0.111611;stroke-linecap:round;stroke-linejoin:miter;stroke-miterlimit:4;stroke-dasharray:none;stroke-opacity:1"
       d="m 21.853354,14.317737 c 0.09952,-2.977672 0.528433,-2.757151 -0.08804,-7.1980598 C 19.610721,1.9651704 20.482157,12.139861 19.213213,13.468735 17.427486,15.425131 19.445726,7.1565902 18.00664,4.129714 14.851047,-0.5728434 17.322474,12.176775 15.738285,13.616388 14.584573,13.449401 15.951068,6.8243723 12.890775,2.0256657 9.4769974,-3.3273255 13.89088,13.787191 12.504672,14.35465 10.192371,13.856007 11.215787,7.7841134 9.0242274,4.8310634 6.4185266,1.3199717 7.9882398,10.170675 9.0780066,16.200306 9.8292413,20.356857 8.6172868,19.85192 8.0644862,19.116443 7.2949806,18.09265 6.9272787,14.735747 5.455637,13.394907 c -3.7632643,-3.4287762 -0.3357561,7.18419 2.2710085,9.449762 3.4361015,1.996739 4.6784665,3.162755 11.0401365,1.55958 1.14203,-0.369132 2.949374,-3.245277 3.086572,-10.086512 z"
       id="path8094"
       sodipodi:nodetypes="cccccsccsssccc" />
  </g>
</svg>
