<?xml version="1.0"?>
<svg width="100" height="100" xmlns="http://www.w3.org/2000/svg" xmlns:svg="http://www.w3.org/2000/svg" version="1.1">
   <path d="m91.85934,36.57689l-67.78983,49.68224l25.89341,-80.38754l25.89341,80.38753l-67.78982,-49.68223l83.79283,0" fill="#000000" fill-opacity="0" id="path148-8" stroke="#191919" stroke-miterlimit="4" stroke-width="3.13355"/>
   <path d="m8.0665,36.5769l67.78983,49.68223l-25.89341,-80.38754l-25.89341,80.38754l67.78983,-49.68223l-83.79284,0" fill="#000000" fill-opacity="0" id="path148" stroke="#191919" stroke-miterlimit="4" stroke-width="3.13355"/>
   <circle cx="50" cy="-50" fill="#000000" fill-opacity="0" id="path1546" r="48.433224" stroke="#191919" stroke-miterlimit="4" stroke-width="3.134" transform="scale(1,-1)"/>
   <path d="m72.25877,236.15003l-12.63186,-7.3682l12.69697,-7.25541l-0.06511,14.62361z" fill="#000000" fill-opacity="0" id="path2619" stroke="#191919" stroke-linecap="round" stroke-miterlimit="4" stroke-width="11.3386" transform="matrix(0.72649094,0.05226867,0.02569494,-0.35713833,-37.678198,114.17391)"/>
   <path d="m72.25877,236.15003l-12.63186,-7.3682l12.69697,-7.25541l-0.06511,14.62361z" fill="#000000" fill-opacity="0" id="path2619-4" stroke="#191919" stroke-linecap="round" stroke-miterlimit="4" stroke-width="11.3386" transform="matrix(-0.55956307,-0.46627275,-0.22921673,0.27507764,158.27299,49.970513)"/>
   <path d="m72.25877,236.15003l-12.63186,-7.3682l12.69697,-7.25541l-0.06511,14.62361z" fill="#000000" fill-opacity="0" id="path2619-4-05" stroke="#191919" stroke-linecap="round" stroke-miterlimit="4" stroke-width="11.3386" transform="matrix(-0.61213029,0.3947374,0.19405038,0.30091937,81.816003,-52.87716)"/>
   <path d="m72.25877,236.15003l-12.63186,-7.3682l12.69697,-7.25541l-0.06511,14.62361z" fill="#000000" fill-opacity="0" id="path2619-4-0" stroke="#191919" stroke-linecap="round" stroke-miterlimit="4" stroke-width="11.3386" transform="matrix(0.16894336,0.70850494,0.34829652,-0.08305146,-37.860482,-14.46154)"/>
   <path d="m72.25877,236.15003l-12.63186,-7.3682l12.69697,-7.25541l-0.06511,14.62361z" fill="#000000" fill-opacity="0" id="path2619-4-8" stroke="#191919" stroke-linecap="round" stroke-miterlimit="4" stroke-width="11.3377" transform="matrix(0.27344122,-0.67509334,-0.33187157,-0.13442198,83.802034,153.72657)"/>
</svg>