<?xml version="1.0"?>
<svg xmlns="http://www.w3.org/2000/svg" xmlns:xlink="http://www.w3.org/1999/xlink" xmlns:svgjs="http://svgjs.com/svgjs" version="1.1" width="512" height="512" x="0" y="0" viewBox="0 0 512 512" style="enable-background:new 0 0 512 512" xml:space="preserve"><g transform="matrix(0.8800000000000001,0,0,0.8800000000000001,30.71999999999997,30.71999999999997)"><path xmlns="http://www.w3.org/2000/svg" d="m467 345.835938c-1.226562 0-2.441406.0625-3.644531.15625l-78.152344-174.539063c8.609375-8.203125 13.988281-19.761719 13.988281-32.558594 0-24.816406-20.1875-45-45-45-12.84375 0-24.441406 5.417969-32.648437 14.078125l-133.097657-58.566406c.140626-1.449219.21875-2.917969.21875-4.40625 0-24.8125-20.1875-45-45-45s-45 20.1875-45 45c0 15.882812 8.277344 29.859375 20.742188 37.871094l-79.355469 339.40625c-22.492187 2.472656-40.050781 21.582031-40.050781 44.722656 0 24.8125 20.1875 45 45 45 22.351562 0 40.945312-16.386719 44.410156-37.773438l338.523438-61.097656c7.761718 13.550782 22.359375 22.707032 39.066406 22.707032 24.8125 0 45-20.1875 45-45 0-24.816407-20.1875-45-45-45zm-112.808594-221.941407c8.269532 0 15 6.726563 15 15 0 8.269531-6.726562 15-15 15-8.273437 0-15-6.730469-15-15 0-8.273437 6.730469-15 15-15zm-44.847656 11.484375c-.089844 1.160156-.152344 2.332032-.152344 3.515625 0 24.8125 20.1875 45 45 45 1.226563 0 2.441406-.066406 3.644532-.160156l78.148437 174.539063c-6.949219 6.625-11.792969 15.441406-13.394531 25.335937l-338.523438 61.097656c-3.613281-6.308593-8.707031-11.65625-14.804687-15.578125l79.351562-339.40625c10.542969-1.160156 20.003907-5.976562 27.078125-13.152344zm-165.679688-105.378906c8.269532 0 15 6.730469 15 15s-6.730468 15-15 15c-8.273437 0-15-6.730469-15-15s6.726563-15 15-15zm-98.664062 452c-8.269531 0-15-6.730469-15-15s6.730469-15 15-15 15 6.730469 15 15-6.730469 15-15 15zm422-76.164062c-8.269531 0-15-6.730469-15-15 0-8.273438 6.730469-15 15-15s15 6.726562 15 15c0 8.269531-6.730469 15-15 15zm0 0" fill="#ffffff" data-original="#000000" style=""/></g></svg>
