<svg id="Layer_1" height="512" viewBox="0 0 512 512" width="512" xmlns="http://www.w3.org/2000/svg" data-name="Layer 1"><path d="m446.9 22.82c-.01-.02-.03-.03-.04-.05a40.387 40.387 0 0 0 -57.12.12l-43.135 43.215 57.13 57.13 43.095-43.195a40.474 40.474 0 0 0 .07-57.22z" fill="#56637b"/><path d="m370.867 149.363-148.937 148.897-50.4-50.39 148.897-148.937z" fill="#ccd3df"/><path d="m221.93 298.26-40.55 40.54a218.465 218.465 0 0 1 -80.79 51.16l-20.76-20.76a218.361 218.361 0 0 1 51.17-80.79l40.53-40.54z" fill="#e87187"/><path d="m121.44 449.58c13.27 22.78-5.47 51.42-31.89 51.42-20.42 0-36.26-17.13-36.26-35.48a31.788 31.788 0 0 1 4.37-16.06l31.89-44.6z" fill="#e87187"/><path d="m446.9 22.82c-.01-.02-.03-.03-.04-.05a40.387 40.387 0 0 0 -57.12.12l-43.135 43.215 20 20 43.135-43.215a40.4 40.4 0 0 1 45.329-8.279 40.428 40.428 0 0 0 -8.169-11.791z" fill="#424b5b"/><path d="m335.15 113.652-14.723-14.719-148.897 148.937 14.549 14.546z" fill="#9ea4ad"/><path d="m145 303.41 41.079-40.994-14.549-14.546-40.53 40.54a218.361 218.361 0 0 0 -51.17 80.79l14.27 14.272a218.36 218.36 0 0 1 50.9-80.062z" fill="#b56476"/><path d="m413.56 127.79-71.56-71.56a24.438 24.438 0 0 0 -34.56 34.56l71.56 71.56a24.438 24.438 0 0 0 34.56-34.56z" fill="#86909d"/><path d="m342 56.23a24.438 24.438 0 0 0 -34.56 34.56l20 20a24.438 24.438 0 0 1 34.56-34.56z" fill="#676f77"/><g id="_Path_3" data-name=" Path 3"><path d="m309.3 146.873a6 6 0 0 1 -4.243-10.243l1.377-1.377a6 6 0 0 1 8.485 8.486l-1.376 1.376a5.983 5.983 0 0 1 -4.243 1.758z" fill="#f4f8fc"/></g><g id="_Path_3-2" data-name=" Path 3-2"><path d="m234.5 221.676a6 6 0 0 1 -4.243-10.243l61.014-61.014a6 6 0 1 1 8.485 8.486l-61.014 61.013a5.979 5.979 0 0 1 -4.242 1.758z" fill="#f4f8fc"/></g></svg>