<?xml version="1.0" encoding="UTF-8" standalone="no"?>
<svg
   version="1.1"
   width="512"
   height="512"
   x="0"
   y="0"
   viewBox="0 0 512 512"
   style="enable-background:new 0 0 512 512"
   xml:space="preserve"
   class=""
   id="svg6"
   sodipodi:docname="redo2.svg"
   inkscape:version="1.1 (c68e22c387, 2021-05-23)"
   xmlns:inkscape="http://www.inkscape.org/namespaces/inkscape"
   xmlns:sodipodi="http://sodipodi.sourceforge.net/DTD/sodipodi-0.dtd"
   xmlns="http://www.w3.org/2000/svg"
   xmlns:svg="http://www.w3.org/2000/svg"><defs
     id="defs10" /><sodipodi:namedview
     id="namedview8"
     pagecolor="#ffffff"
     bordercolor="#666666"
     borderopacity="1.0"
     inkscape:pageshadow="2"
     inkscape:pageopacity="0.0"
     inkscape:pagecheckerboard="0"
     showgrid="false"
     inkscape:zoom="1.5859375"
     inkscape:cx="256"
     inkscape:cy="256.31527"
     inkscape:window-width="1920"
     inkscape:window-height="1001"
     inkscape:window-x="-9"
     inkscape:window-y="-9"
     inkscape:window-maximized="1"
     inkscape:current-layer="svg6" /><g
     transform="matrix(0.86,0,0,0.86,35.840004,35.840028)"
     id="g4"
     style="fill:#ffffff"><path
       d="m 431,481 c 0,11.046 -8.954,20 -20,20 h -66 c -11.046,0 -20,-8.954 -20,-20 0,-11.046 8.954,-20 20,-20 h 66 c 11.046,0 20,8.954 20,20 z M 494.358,128.006 382.074,16.791 c -7.848,-7.773 -20.511,-7.713 -28.284,0.135 -7.773,7.848 -7.712,20.511 0.135,28.284 L 460.733,151 H 175 C 78.505,151 0,229.505 0,326 0,422.495 78.505,501 175,501 h 69 c 11.046,0 20,-8.954 20,-20 0,-11.046 -8.954,-20 -20,-20 H 175 C 100.561,461 40,400.439 40,326 40,251.561 100.561,191 175,191 H 459.836 L 354.799,296.917 c -7.778,7.843 -7.725,20.506 0.118,28.284 3.9,3.868 8.992,5.799 14.083,5.799 5.146,0 10.292,-1.975 14.202,-5.917 L 494.427,212.926 C 505.759,201.594 512,186.526 512,170.5 c 0,-16.026 -6.241,-31.094 -17.642,-42.494 z"
       fill="#b093ab"
       data-original="#000000"
       class=""
       id="path2"
       style="fill:#ffffff" /></g></svg>
