<?xml version="1.0" encoding="UTF-8"?>
<svg xmlns="http://www.w3.org/2000/svg" xmlns:xlink="http://www.w3.org/1999/xlink" width="20px" height="20px" viewBox="0 0 20 20" version="1.1">
<g id="surface1">
<path style=" stroke:none;fill-rule:nonzero;fill:rgb(0%,0%,0%);fill-opacity:1;" d="M 17.144531 0 C 16.75 0 16.429688 0.320312 16.429688 0.714844 L 16.429688 3.324219 C 12.75 -0.238281 6.882812 -0.140625 3.324219 3.535156 C 1.644531 5.269531 0.710938 7.585938 0.714844 10 C 0.714844 10.394531 1.035156 10.714844 1.429688 10.714844 C 1.824219 10.714844 2.144531 10.394531 2.144531 10 C 2.144531 5.660156 5.664062 2.144531 10 2.144531 C 12.207031 2.144531 14.308594 3.070312 15.796875 4.695312 L 12.632812 5.75 C 12.257812 5.875 12.054688 6.28125 12.179688 6.65625 C 12.304688 7.03125 12.707031 7.234375 13.082031 7.109375 L 17.367188 5.679688 C 17.660156 5.582031 17.859375 5.308594 17.855469 5 L 17.855469 0.714844 C 17.855469 0.320312 17.539062 0 17.144531 0 Z M 17.144531 0 "/>
<path style=" stroke:none;fill-rule:nonzero;fill:rgb(0%,0%,0%);fill-opacity:1;" d="M 18.570312 9.285156 C 18.175781 9.285156 17.855469 9.605469 17.855469 10 C 17.855469 14.339844 14.335938 17.855469 10 17.855469 C 7.792969 17.855469 5.691406 16.929688 4.203125 15.304688 L 7.367188 14.25 C 7.742188 14.125 7.945312 13.71875 7.820312 13.34375 C 7.695312 12.96875 7.292969 12.765625 6.917969 12.890625 L 2.632812 14.320312 C 2.339844 14.417969 2.140625 14.691406 2.144531 15 L 2.144531 19.285156 C 2.144531 19.679688 2.460938 20 2.855469 20 C 3.25 20 3.570312 19.679688 3.570312 19.285156 L 3.570312 16.675781 C 7.25 20.238281 13.117188 20.140625 16.675781 16.464844 C 18.355469 14.730469 19.289062 12.414062 19.285156 10 C 19.285156 9.605469 18.964844 9.285156 18.570312 9.285156 Z M 18.570312 9.285156 "/>
</g>
</svg>
