<svg id="Capa_1" enable-background="new 0 0 497 497" height="512" viewBox="0 0 497 497" width="512" xmlns="http://www.w3.org/2000/svg"><g><g><path d="m465.369 38.644h-272.766c-17.469 0-31.631 14.162-31.631 31.631v54.273c0 17.235 13.513 31.804 30.742 32.277 17.875.49 32.52-13.854 32.52-31.619v-20.299c0-1.657 1.343-3 3-3h66.723c1.657 0 3 1.343 3 3v287.187c0 1.657-1.343 3-3 3h-10.937c-17.235 0-31.804 13.513-32.277 30.742-.49 17.875 13.854 32.52 31.619 32.52h94.666c17.236 0 31.805-13.513 32.277-30.742.49-17.875-13.854-32.52-31.619-32.52h-17.466v-290.188c0-1.657 1.343-3 3-3h67.518c1.657 0 3 1.343 3 3v19.642c0 17.235 13.513 31.804 30.742 32.277 17.875.49 32.52-13.854 32.52-31.619v-54.931c0-17.469-14.162-31.631-31.631-31.631z" fill="#91dafa"/></g><g><path d="m221.785 206.228h-196.109c-14.18 0-25.676 11.496-25.676 25.676v44.011c0 14.395 11.78 26.522 26.173 26.25 13.951-.265 25.18-11.657 25.18-25.671v-15.914c0-1.657 1.343-3 3-3h41.645c1.657 0 3 1.343 3 3v143.423c0 1.657-1.343 3-3 3h-20.923c-14.395 0-26.523 11.78-26.249 26.173.265 13.951 11.657 25.179 25.671 25.179h102.104c14.395 0 26.523-11.78 26.25-26.172-.264-13.951-11.657-25.18-25.671-25.18h-23.831c-1.657 0-3-1.343-3-3v-143.423c0-1.657 1.343-3 3-3h39.76c1.657 0 3 1.343 3 3v15.335c0 14.395 11.78 26.522 26.172 26.25 13.952-.264 25.18-11.657 25.18-25.671v-44.589c0-14.181-11.496-25.677-25.676-25.677z" fill="#ea7b45"/></g><g><path d="m377.028 395.094h-13.808c-1.657 0-3-1.343-3-3v-290.188h-21.149c-6.488 0-11.747 5.259-11.747 11.747v269.692c0 6.488 5.259 11.747 11.747 11.747 16.685 0 31.014 12.658 32.206 29.301 1.326 18.522-13.308 33.961-31.548 33.961h37.957c17.765 0 32.109-14.645 31.619-32.52-.472-17.227-15.042-30.74-32.277-30.74z" fill="#6ec2fc"/></g><g><path d="m465.369 38.644h-37.957c17.469 0 31.631 14.162 31.631 31.631v54.931c0 10.348-4.97 19.534-12.652 25.305 5.287 3.971 11.857 6.326 18.979 6.326 17.469 0 31.631-14.162 31.631-31.631v-54.931c-.001-17.469-14.163-31.631-31.632-31.631z" fill="#6ec2fc"/></g><g><path d="m177.18 407.003h-23.041v.454c11.888 2.246 20.882 12.681 20.882 25.222 0 14.181-11.496 25.676-25.676 25.676h27.835c14.18 0 25.676-11.496 25.676-25.676-.001-14.18-11.496-25.676-25.676-25.676z" fill="#e76833"/></g><g><path d="m221.785 206.228h-27.835c14.18 0 25.676 11.496 25.676 25.676v44.589c0 9.046-4.689 16.983-11.758 21.557 4.012 2.596 8.783 4.119 13.918 4.119 14.18 0 25.676-11.495 25.676-25.676v-44.589c-.001-14.18-11.497-25.676-25.677-25.676z" fill="#e76833"/></g></g></svg>