<?xml version="1.0"?>
<svg xmlns="http://www.w3.org/2000/svg" xmlns:xlink="http://www.w3.org/1999/xlink" xmlns:svgjs="http://svgjs.com/svgjs" version="1.1" width="512" height="512" x="0" y="0" viewBox="0 0 512 511" style="enable-background:new 0 0 512 512" xml:space="preserve" class=""><g transform="matrix(0.8900000000000001,0,0,0.8900000000000001,28.159999999999968,130.72634765625)"><path xmlns="http://www.w3.org/2000/svg" d="m497 .5h-60c-8.285156 0-15 6.714844-15 15v15h-121v-15c0-8.285156-6.714844-15-15-15h-60c-8.285156 0-15 6.714844-15 15v15h-121v-15c0-8.285156-6.714844-15-15-15h-60c-8.285156 0-15 6.714844-15 15v60c0 8.285156 6.714844 15 15 15h60c8.285156 0 15-6.714844 15-15v-15h89.160156c-35.097656 12.773438-66.800781 34.234375-91.882812 62.640625-35.488282 40.195313-55.46875 91.890625-56.253906 145.566406-.121094 8.28125 6.496093 15.097657 14.777343 15.21875h.226563c8.179687 0 14.871094-6.574219 14.992187-14.78125 1.332031-91.015625 64.132813-167.523437 151.417969-187.265625 2.398438 5.089844 7.5625 8.621094 13.5625 8.621094h60c6 0 11.164062-3.535156 13.5625-8.625 87.925781 19.847656 150.746094 96.945312 151.429688 188.667969.0625 8.246093 6.765624 14.890625 14.996093 14.890625h.117188c8.28125-.0625 14.949219-6.828125 14.886719-15.113282-.402344-53.976562-20.199219-106.035156-55.742188-146.578124-25.167969-28.710938-57.054688-50.378907-92.398438-63.242188h89.148438v15c0 8.285156 6.714844 15 15 15h60c8.285156 0 15-6.714844 15-15v-60c0-8.285156-6.714844-15-15-15zm-437 60h-30v-30h30zm211 0h-30v-30h30zm211 0h-30v-30h30zm0 0" fill="#ffffff" data-original="#000000" style="" class=""/></g></svg>
