<?xml version="1.0"?>
<svg xmlns="http://www.w3.org/2000/svg" xmlns:xlink="http://www.w3.org/1999/xlink" xmlns:svgjs="http://svgjs.com/svgjs" version="1.1" width="512" height="512" x="0" y="0" viewBox="0 0 128 128" style="enable-background:new 0 0 512 512" xml:space="preserve" class=""><g transform="matrix(0.88,2.1553783664993416e-16,-2.1553783664993413e-16,0.8799999999999999,7.679926872253432,7.679820098876931)"><g xmlns="http://www.w3.org/2000/svg"><path d="m107.789 64.694a1.748 1.748 0 0 1 -1.238-.512l-4.993-4.993a1.75 1.75 0 1 1 2.474-2.475l4.994 4.993a1.75 1.75 0 0 1 -1.237 2.987z" fill="#4cb8eb" data-original="#4cb8eb" style="" class=""/><circle cx="88.379" cy="43.536" fill="#fff5f5" r="20.386" data-original="#fff5f5" style="" class=""/><path d="m105.011 61.992h10.156v6.507h-10.156z" fill="#72514c" transform="matrix(.707 -.707 .707 .707 -13.891 96.954)" data-original="#76625f" style="" class=""/><path d="m108.8 71.136 8.782 8.783a5.078 5.078 0 0 0 7.182-7.182l-8.783-8.782z" fill="#ffcb37" data-original="#ff9000" style="" class=""/><path d="m73.964 57.951a20.355 20.355 0 0 1 9.482-34.175c-.326-3.247-1.341-5.628-3.216-6.695-4.793-2.727-14.049 3.676-23 13.353a120.2 120.2 0 0 1 1.935 20.824c0 7.374-.847 13.128-2.316 17.52h12.94c.1-.173.2-.332.3-.508 1.7-2.988 3.313-6.195 4.793-9.494-.311-.271-.624-.532-.918-.825z" fill="#00a400" data-original="#00a400" style="" class=""/><path d="m59.161 51.258c0-21.815-7.388-49.508-16.5-49.508s-16.5 27.693-16.5 49.508c0 7.374.846 13.128 2.316 17.52h28.368c1.469-4.392 2.316-10.146 2.316-17.52z" fill="#a9db1f" data-original="#a9db1f" style="" class=""/><path d="m49.36 45.18a1.75 1.75 0 0 0 -2.149-2.763l-2.8 2.179v-9.291l4.949-3.849a1.75 1.75 0 0 0 -2.149-2.763l-2.8 2.178v-14.371a1.75 1.75 0 0 0 -3.5 0v6.547l-2.8-2.179a1.75 1.75 0 0 0 -2.149 2.763l4.95 3.849v9.291l-2.8-2.178a1.75 1.75 0 1 0 -2.149 2.762l4.95 3.85v9.291l-2.8-2.179a1.75 1.75 0 0 0 -2.149 2.763l4.95 3.849v13.849a1.75 1.75 0 0 0 3.5 0v-6.024l4.949-3.849a1.75 1.75 0 1 0 -2.149-2.763l-2.8 2.178v-9.29z" fill="#00a400" data-original="#00a400" style="" class=""/><path d="m7.158 68.778h71.004v9.463h-71.004z" fill="#ffcb37" data-original="#ff9000" style="" class=""/><path d="m61.007 126.247h-36.692l-.607-1.585a129.907 129.907 0 0 1 -8.577-46.42h55.06a129.908 129.908 0 0 1 -8.578 46.42z" fill="#72514c" data-original="#76625f" style="" class=""/><path d="m69.338 93.1a23.427 23.427 0 0 0 -3.985 2.911c-1.928 1.654-2.991 2.566-5.574 2.566s-3.645-.911-5.573-2.566c-2.351-2.015-5.57-4.776-11.548-4.776s-9.2 2.761-11.547 4.776c-1.928 1.655-2.991 2.566-5.572 2.566s-3.644-.911-5.572-2.566a23.43 23.43 0 0 0 -3.984-2.911 129.921 129.921 0 0 0 2.15 12.873 15.213 15.213 0 0 0 7.406 1.78c5.977 0 9.2-2.76 11.546-4.776 1.929-1.654 2.991-2.565 5.573-2.565s3.645.911 5.574 2.565c2.351 2.016 5.569 4.776 11.547 4.776a15.215 15.215 0 0 0 7.41-1.782 129.879 129.879 0 0 0 2.149-12.871z" fill="#40322f" data-original="#40322f" style="" class=""/><path d="m26.161 51.258c0 7.374.846 13.128 2.316 17.52h-12.94c-.1-.173-.2-.332-.3-.508-10.789-18.96-18.065-46.682-10.145-51.189 4.792-2.727 14.049 3.676 23 13.353a120.2 120.2 0 0 0 -1.931 20.824z" fill="#00a400" data-original="#00a400" style="" class=""/></g></g></svg>
